<?xml version="1.0" encoding="utf-8"?>
<!-- Generator: Adobe Illustrator 25.4.1, SVG Export Plug-In . SVG Version: 6.00 Build 0)  -->
<svg version="1.1" id="Capa_1" xmlns="http://www.w3.org/2000/svg" xmlns:xlink="http://www.w3.org/1999/xlink" x="0px" y="0px"
	 viewBox="0 0 595.28 841.89" style="enable-background:new 0 0 595.28 841.89;" xml:space="preserve">
<style type="text/css">
	.st0{fill:#9F511A;}
	.st1{fill:#F3E7CB;}
	.st2{fill:#FFFFFE;}
</style>
<g>
	<path class="st0" d="M70.2,158.22c1.04,8.19,5.42,14.8,10.35,21.04c4.66,5.89,9.7,11.48,16.03,15.7c1.86,2.9,4.36,4.99,7.67,6.06
		c0.11,0.25,0.3,0.34,0.57,0.28c4.75,3.46,10.32,5.57,15.85,6.43c6.48,1,13.66,1.82,18.79-4.38l-0.2-0.29c0,0,0.18,0.3,0.18,0.3
		c5.53-1.9,5.87-6.7,6.36-11.41c0.03-1.26,0.05-2.51,0.08-3.77c0.32-9.81-1.11-19.49-2.25-29.19c0.01-1,0.01-2,0.02-2.99
		c1.29-2.11,2.26-4.54,3.94-6.27c4.11-4.24,9.26-5.13,15.05-4.17c5.92,0.98,7.78,4.9,8.51,10.07c1.36,9.68,3.42,19.32,3.99,29.04
		c0.62,10.69,1.22,21.48-2.45,32.04c-2.56,7.39-8.16,12.37-12.51,18.34c-3.69,5.07-7.56,9.99-7.98,16.63
		c-0.28,4.46-0.64,8.92-0.97,13.38c-0.24,0.09-0.32,0.26-0.27,0.5c-21.19,2.63-42.41,0.48-63.61,0.45c0,0-0.07-0.07-0.07-0.07
		c-0.35-5.66,0.28-11.38-1.23-16.96c-0.22-0.67-0.43-1.34-0.65-2.01c-0.08-1.69-0.56-3.22-1.77-4.46c0.12-0.22,0.07-0.39-0.15-0.51
		c0.12-1.5-0.31-2.76-1.56-3.67c-0.37-0.53-0.73-1.05-1.1-1.58c-0.14-1.39-0.43-2.68-2.08-3.03c-0.33-0.63-0.65-1.26-0.98-1.9
		c-0.09-0.77-0.59-1.1-1.3-1.19c-1.38-2.88-3.47-5.27-6.01-7.04c-6.32-4.41-10.75-10.51-15.36-16.47c-0.03-1.15-0.68-1.8-1.72-2.15
		c0,0,0.02,0.03,0.02,0.03c0.01-0.68-0.32-1.08-0.97-1.24c-0.23-0.31-0.47-0.61-0.7-0.92c-0.25-0.77-0.55-1.5-1.47-1.69
		c-0.65-0.69-1.3-1.38-1.96-2.08c-3.38-6.3-6.22-12.87-8.04-19.75c-4.77-18.08-3.92-36.27,0.5-54.24
		c1.56-6.33,2.45-13.15,7.18-18.38c4-4.42,8.67-6.62,14.65-4.86c4.75,1.39,8.65,6.85,8.85,12.7c0.09,2.8-0.28,5.63-0.66,8.42
		c-0.56,4.09-1.96,8.06-1.88,12.25c-0.1,0.98-0.19,1.96-0.29,2.94C66.74,145.03,67.45,151.71,70.2,158.22z"/>
	<path class="st0" d="M132.46,73.2c-0.16,0.51-0.32,1.02-0.47,1.53c-0.92,1.8-1.85,3.6-2.77,5.39c0,0-0.01,0.01-0.01,0.01
		c-0.85,0.16-1.27,0.73-1.43,1.54c0,0-0.07,0.07-0.07,0.07c-0.29,0.33-0.58,0.67-0.86,1c0,0,0.2,0.2,0.2,0.2s-0.24-0.16-0.24-0.16
		c-4.76,3.99-4.97,3.75-8.57-1.29c-6.5-9.12-13.35-17.99-19.98-27.03c-8.06-10.98-16.03-22.01-24.05-33.03
		c4.63-3.18,9.46-4.66,14.64-5.31c7.25-0.92,13.57,2.21,20.13,4.34l0.16-0.3c0,0-0.19,0.28-0.19,0.28c0.97,1.54,2.42,2.39,4.13,2.86
		c0,0-0.02-0.02-0.02-0.02c2.71,2.63,5.41,5.25,8.12,7.88c0,0,0,0,0,0c0.46,1.72,1.21,3.23,2.96,4c0,0,0.03,0.04,0.03,0.04
		c0.43,2.7,2.29,4.7,3.46,7.04C132.58,52.05,135.63,62.13,132.46,73.2z"/>
	<path class="st0" d="M209.16,85.03c0.61-0.17,1.23-0.34,1.84-0.5c1.36,0.18,2.71,0.36,4.07,0.54c0,0,0.07,0.12,0.07,0.12
		c-0.87,5.01-1.75,10.02-2.62,15.02c-0.14,0.61-0.27,1.22-0.41,1.83c-1.81,2.28-3.62,4.57-5.44,6.85c-0.25-0.02-0.39,0.1-0.42,0.35
		c-1.07,0.2-1.65,0.93-2.02,1.88c0,0-0.07,0.06-0.07,0.06c-1.79,0.85-3.22,2.06-3.95,3.96c0,0-0.02,0.02-0.02,0.02
		c-8.78,4.6-18.27,6.79-27.99,8.16c-3-0.05-6-0.1-9-0.15c-3.44-1.83-7.33-2.06-10.98-3.14c-0.66-0.31-1.33-0.61-1.99-0.92
		c-0.43-0.76-1.03-1.21-1.95-1.06c0,0-0.06-0.04-0.06-0.04c-0.05-0.62-0.45-0.82-1.01-0.82c0,0-0.11-0.11-0.11-0.11
		c0.01-0.62-0.28-0.92-0.91-0.88c0,0-0.13-0.09-0.13-0.09c-1.22-1.54-2.48-3.04-3.65-4.61c-2.74-3.69-5.55-7.32-6.44-12.05
		c-0.53-2.83,0.3-3.91,3.21-3.88c2.54,0.02,5.29,0.89,7.58-1.07c0.47-0.13,0.95-0.26,1.42-0.39c4.62-0.93,9.49-0.26,13.95-2.24
		c0.67-0.11,1.35-0.23,2.02-0.34c0.86,0.51,1.49,0.12,2.05-0.53c0.94-0.19,1.89-0.39,2.83-0.58c4.05-0.56,8.09-1.12,12.14-1.68
		c0.96-0.15,1.91-0.3,2.87-0.45c3.5,0.57,6.84-0.06,10.11-1.3c1.99,0.14,3.97,0.2,5.86-0.6C203.13,86.39,206.24,86.33,209.16,85.03z
		"/>
	<path class="st0" d="M60.14,42.09c0-0.63-0.01-1.27-0.01-1.9c0.62-0.99,0.54-2.04,0.23-3.1c0.21-0.14,0.25-0.31,0.11-0.52
		c0.78-0.51,1.09-1.27,1.14-2.17l-0.33-0.25c0,0,0.32,0.27,0.32,0.27c0.22-0.43,0.44-0.86,0.66-1.28c1.4-1.88,2.79-3.77,4.19-5.65
		c4.17-3.11,5.48,0.83,7.19,3.11c14.27,18.92,28.44,37.91,42.71,56.83c1.34,1.77,1.33,2.84-0.64,3.92
		c-3.66,2.01-7.54,3.39-11.59,4.35c-1.6-0.03-3.19-0.06-4.79-0.09c-4.79,0.11-9.29-1.17-13.69-2.89c0,0-0.1-0.06-0.1-0.06
		c-10.19-7.47-18.16-16.83-23.9-28.09c-0.14-0.45-0.28-0.91-0.42-1.37c-0.85-5.65-2.92-11.16-1.79-17.01
		c0.17-0.47,0.35-0.94,0.52-1.41C60.64,43.91,60.74,43.03,60.14,42.09z"/>
	<path class="st0" d="M108.4,148.08c0.22-0.08,0.28-0.23,0.17-0.44c1.16-0.91,1.31-2.12,1.06-3.46c0.08-0.49,0.16-0.98,0.24-1.47
		c0.13-0.53,0.26-1.05,0.39-1.58c0,0,0.01-0.03,0.01-0.03c1.27-1.84,2.78-3.55,3.03-5.91c0,0,0.01-0.04,0.01-0.04
		c1.74-1.23,2.08-3.07,2.17-5.01c0.19-0.09,0.25-0.24,0.16-0.44c1.84-2.14,2.41-4.76,2.79-7.45c0,0-0.01-0.01-0.01-0.01
		c1.67-2.1,3.2-4.25,2.92-7.15c0.3-0.96,0.6-1.93,0.9-2.9c1.43-1.76,2.39-3.68,2.22-6.03c0.2-0.07,0.28-0.2,0.23-0.41
		c7.69,2.35,12.54,8.03,15.55,14.91c2.73,6.25,4.63,12.63,2.67,20.14c-1.96,7.53-4.36,14.87-6.75,22.24c0,0,0.01-0.02,0.01-0.02
		c-1.35,0.97-1.86,2.39-2.07,3.96c0,0,0.01,0,0.01,0c-1.06,0.46-1.35,1.39-1.48,2.42c0,0-0.2,0.3-0.2,0.3
		c-0.2,0.24-0.41,0.48-0.61,0.72c0,0-0.25,0.25-0.25,0.26c-0.24,0.22-0.48,0.45-0.73,0.67c0,0-0.26,0.21-0.26,0.21
		c-0.78,0.19-1.34,0.61-1.51,1.44c-0.31,0.3-0.61,0.59-0.92,0.89c-0.45,0.34-0.91,0.67-1.36,1.01c-7.64,5.3-16.19,6.71-25.3,6.38
		c-3.66-0.13-4.26-1.24-3.08-4.44c2.22-6.02,5.49-11.7,6.14-18.25c1.07-0.94,1.26-2.15,1.04-3.48c0,0,0.13-0.4,0.12-0.41
		c1.09-1.32,1.8-2.8,1.92-4.53c0.17-0.1,0.23-0.25,0.19-0.45C108.01,149.18,108.21,148.63,108.4,148.08z"/>
	<path class="st0" d="M96.08,164.08c-0.22,0.09-0.29,0.24-0.2,0.47c-0.57,0.37-0.79,0.88-0.6,1.55c-0.43,1.07-0.86,2.13-1.29,3.2
		c-3.96,9.71-2.93,9.71-11.49,2.95c-5.05-3.99-8.37-9.46-9.17-16.12c-0.61-8.77,0.2-17.41,2.18-25.96c0.22-0.1,0.28-0.26,0.18-0.49
		c0.81-0.58,1.11-1.36,0.93-2.33l-0.28-0.03c0,0,0.28-0.01,0.28-0.01c1.61-2.52,3.55-4.88,3.93-8l-0.25-0.23
		c0,0,0.24,0.24,0.24,0.24c0.89-0.38,1.14-1.09,1.01-2l-0.26-0.23c0,0,0.24,0.24,0.24,0.24c0.61-0.13,0.88-0.52,0.84-1.13
		c0,0,0.01-0.01,0.01-0.01c1.7-1.99,3.41-3.97,5.11-5.96c0.65-0.56,1.3-1.12,1.95-1.68c0.93-0.01,1.64-0.35,1.91-1.32
		c0,0,0.01,0,0.01,0c7.21-3.68,14.9-5.53,22.95-5.98c0.51,0.02,1.02,0.03,1.52,0.05c0.35,0.56,0.84,0.67,1.43,0.41
		c0.62,0.47,1.24,0.94,1.86,1.4c-0.66,2.33-1.32,4.65-1.99,6.98c-0.24,0.1-0.31,0.26-0.22,0.5c-4.91,10.56-9.56,21.22-12.93,32.39
		c-1.36,1.21-0.87,2.96-1.28,4.45c-0.57,1.15-1.14,2.3-1.71,3.45c-1.42,1.5-2.25,3.2-1.88,5.32c-0.21,0.6-0.43,1.21-0.64,1.81
		c-0.08,0.35-0.16,0.69-0.24,1.04c0,0,0,0,0,0c-0.99,0.78-1.16,1.88-1.17,3.04c0,0-0.21,0.37-0.21,0.37
		C96.19,162.83,95.97,163.38,96.08,164.08z"/>
	<path class="st0" d="M152.84,88.95l-0.34-0.04c0,0-0.26,0.22-0.26,0.22c-1.39-0.2-2.76-0.21-4.07,0.4
		c-0.62,0.11-1.24,0.22-1.86,0.34c-1.8,0.04-3.59,0.05-5.39,0.13c-5.84,0.25-6.1-0.06-5.79-5.95c0.23-4.5,3.02-8.36,3.05-12.89
		c0,0,0.04-0.07,0.04-0.07c8.03-9.38,18.01-15.26,30.35-16.85c8.25-1.06,16.44-0.84,24.55,1.14c0.1,0.2,0.25,0.24,0.45,0.14
		c0.5,0.25,0.99,0.5,1.49,0.75c0,0-0.04-0.02-0.04-0.02c5.1,2.44,8.74,6.71,12.92,10.3c-0.04,0.26,0.05,0.43,0.29,0.53
		c-0.05,0.6,0.12,1.05,0.77,1.2c0,0-0.03-0.03-0.03-0.03c0,0.63,0.31,1.01,0.93,1.13c0,0-0.05-0.06-0.05-0.06
		c0.03,0.87,0.4,1.51,1.26,1.81c0,0,0.01,0.01,0.01,0.01c0.29,2.74,2.51,4.98,2.03,7.91c0,0-0.08,0.05-0.08,0.05
		c-3.11,0.16-6.23,0.26-8.99,2c-2.3,0.12-4.59,0.24-6.89,0.37c-0.9-0.42-1.71-0.26-2.44,0.39c-3.91,0.39-7.91,0.25-11.57,2.07
		c-1.32-0.26-2.55-0.17-3.58,0.82c0,0-0.44,0.03-0.44,0.03c-1.72-0.19-3.41-0.07-5.03,0.58c-1.61,0.14-3.22,0.28-4.83,0.42
		c-2.68,0.47-5.36,0.93-8.04,1.4c0,0-0.05,0.01-0.05,0.01C158.25,87,155.45,87.54,152.84,88.95z"/>
	<path class="st0" d="M18.33,358.89c1.31,0.02,2.62,0.04,3.93,0.05c1.74,2.01,3.82,1.25,5.98,0.91c3.57-0.55,7.45-1.45,10.7,0.3
		c3.66,1.98,6.55,1.38,9.57-0.83l-0.01-0.29c0,0,0.05,0.28,0.05,0.28c1.34-0.1,2.63-0.35,3.72-1.22c0.91,0.04,1.83,0.07,2.74,0.11
		c1.5,0.84,2.89,1.81,3.69,3.41c-0.11,0.2-0.07,0.38,0.1,0.53c-0.03,8.05,0.53,16.08-0.08,24.15c-0.21,2.86-0.09,5.94,1.42,8.65
		c-0.16,0.22-0.19,0.45-0.09,0.7c-2.44,1.45-5.25,0.65-7.83,1.27l-0.32-0.17c0,0-0.35,0.08-0.35,0.08c-2.27-1.47-2.36-3.66-2.31-6.1
		c0.15-7.45,0.1-14.9,0.14-22.35c0.01-2.15-0.05-4.19-3.15-3.51c-0.63,0.04-1.26,0.08-1.89,0.12c-1.25-0.1-2.31,0.07-2.29,1.7
		c0,0-0.04,0.22-0.04,0.22c-1.64,7.34-0.31,14.78-0.72,22.16c-0.1,1.79,0.35,3.62,1.81,4.96c0,0-0.01,0.06-0.01,0.06
		c-2.05,4.08-5.84,1.76-8.82,2.35c-3.41,0.66-4.54-1.06-3.84-4.27c0,0,0.01-0.07,0.01-0.07c0.27-0.17,0.76-0.32,0.78-0.52
		c0.92-8.12,1.49-16.3,0.25-24.36c-0.48-3.15-3.43-4.16-6.27-1.4l-0.12,0.05c-4.3,2.17-2.23,5.99-2.38,9.23
		c-0.03,1.28-0.07,2.57-0.1,3.85c-0.02,0.36-0.05,0.73-0.07,1.09c-0.01,0.95-0.02,1.9-0.03,2.86c-0.45,3.24-0.31,6.38,1.62,9.2
		l-0.01,0.01c-0.03,0.7,0.34,1.01,1,1.03l0.02,0.05c0.28,2.06,0.01,3.61-2.68,3.49c-1.97-0.09-3.95,0.06-5.93,0.12
		c-3.1,0.09-4.45-0.7-3.57-4.38c1.84-7.72,2.61-15.6,1.42-23.55c-0.24-1.58,0.1-3.42-1.99-4.09c0.01-1.15,0.02-2.29,0.04-3.44
		C14.41,360.51,16.37,359.7,18.33,358.89z"/>
	<path class="st0" d="M182.19,396.3c-0.64,0.11-1.27,0.23-1.91,0.34c-2.95-0.85-5.94-0.06-8.9-0.18c-0.27-0.23-0.53-0.46-0.8-0.69
		c0.24-1.55,0.47-3.1,0.71-4.64l0.04-0.04c2-7.97,0.59-16.07,0.72-24.1c0.03-1.58-1.37-3.14-3.45-2.75
		c-1.98,0.38-4.33,1.07-4.37,3.39c-0.14,8.3-1.25,16.75,0.57,24.85c0.82,3.67,0.19,3.76-2.73,3.87c-7.66,0.28-7.53,0.36-7.38-6.6
		c0.14-6.65-0.12-13.31-0.02-19.97c0.04-2.78-0.43-5.25-3.48-5.65c-3.07-0.41-4.37,2.05-5,4.58c-1.55,6.21-1.01,12.56-0.81,18.86
		c0.06,1.77,0.86,3.56,2.61,4.58c0,0-0.02-0.04-0.02-0.04c0.05,1.25,0.1,2.5,0.15,3.76c0,0-0.04,0.05-0.04,0.05
		c-3.26,0.51-6.5,1.07-9.82,0.34c-2.16-0.47-3.4-1.48-2.49-3.77c3.26-8.25,2.68-16.88,1.39-25.2c-0.66-4.23-0.83-6.68,3.45-8.1
		c0.24,0.1,0.43,0.06,0.6-0.15c0.68-0.07,1.36-0.14,2.04-0.22c2.23,2,4.35,2.87,7.4,1.05c3.51-2.09,7.53-2.05,11.46-0.78
		c1.9,2.4,3.99,2.09,6.59,0.94c7.25-3.21,10.97-1.67,13.27,5.1c0.03,0.58,0.05,1.15,0.08,1.73c-0.42,8.95-2.09,17.95,1.06,26.77
		C183.46,394.69,182.9,395.55,182.19,396.3z"/>
	<path class="st0" d="M65.13,361.96c4.41-4.54,9.9-5.97,16.03-5.54c0.97,0.27,1.94,0.54,2.91,0.81c0,0-0.04-0.03-0.04-0.03
		c0.4,0.27,0.8,0.54,1.2,0.8c0,0,0.01,0.01,0.01,0.01c0.52,0.47,1.04,0.94,1.56,1.41c0,0,0,0.01,0,0.01
		c1.44,3.5,2.55,7.08,2.96,10.87c0.4,3.72-0.42,7.56,1.03,11.18c-0.1,0.26-0.03,0.45,0.22,0.59c-0.07,2.62-0.47,5.29-0.13,7.86
		c0.54,4.08-0.18,7.07-4.7,8.01c-6.06-1.97-12.27,2.42-18.31-0.45c-1.3-0.98-2.59-1.97-3.89-2.95c0,0-0.25-0.27-0.25-0.27
		c-2.94-5.34-2.51-10.78-0.48-16.26l0.06-0.07c3.32-2.54,6.7-4.67,11.23-4.28c6.72,0.58,6.73,0.46,6.71-6.33
		c0-0.83,0.05-1.66,0.01-2.48c-0.18-3.55-1.89-4.71-5.21-3.29l-0.17,0.08c-0.32,0.27-0.65,0.54-0.97,0.8l-0.2,0.23
		c-2.36,3.2-3.97,7.53-9.34,6.12c-0.03-0.26-0.11-0.5-0.24-0.72C65.11,366.05,65.12,364.01,65.13,361.96z M76.66,378.88
		c-3.8,0.39-6.02,2.67-6.17,6.45c-0.14,3.57,1.67,6.07,5.53,6.33c3.75,0.25,6.16-2.36,6.42-6.63
		C82.69,380.99,80.34,379.41,76.66,378.88z"/>
	<path class="st0" d="M194.74,370.1c-0.47,6.3-0.56,12.6,0.03,18.89c-0.08,0.13-0.25,0.32-0.21,0.39c0.14,0.24,0.35,0.44,0.53,0.66
		c0,0-0.01-0.02-0.01-0.02c0.83,2.77,3.06,2.11,4.82,1.64c1.99-0.54,2.52-2.38,2.52-4.33c-0.02-4.6,0.17-9.22-0.11-13.81
		c-0.23-3.68,1.21-7.51-0.88-11.03c0.06-0.23-0.02-0.39-0.25-0.47c0.07-0.95,0.15-1.9,0.22-2.84c0,0-0.04,0.05-0.04,0.05
		c2.29-0.15,4.57-0.29,6.86-0.44c0.61,0.14,1.22,0.29,1.83,0.43c2.49,5.37,1.27,11.04,1.43,16.62c0.17,6.06-1.5,12.22,0.9,18.16
		c-0.06,0.64-0.13,1.28-0.19,1.93c-3.94,0.8-7.88,0.13-11.82,0.08c-13.15-0.18-13.15-0.06-14.73-13.16
		c0.07-5.27,0.15-10.53,0.22-15.8c0.08-0.8,0.37-1.65,0.21-2.4c-1.21-5.65-1.06-5.85,5.04-5.67c0.99,0.03,1.97,0.14,2.95,0.22
		c0,0-0.09-0.06-0.09-0.06C194.22,362.78,194.48,366.44,194.74,370.1z"/>
	<path class="st0" d="M115.02,337.9c-0.29,0.32-0.58,0.63-0.86,0.95c-2.61,0.01-5.23,0.03-7.84,0.04c0,0-0.03-0.02-0.03-0.02
		c-0.53-1.22-0.77-2.46-0.74-3.84c0.13-7.79,0.18-15.58,0.19-23.37c0-2.88-0.78-5.52-4.23-5.62c-3.7-0.11-4.82,2.59-4.72,5.68
		c0.25,7.77,0.29,15.53-0.23,23.29c-0.04,0.65-0.08,1.3-0.13,1.95c-0.06,0.36-0.12,0.71-0.17,1.07c-0.22,0.09-0.29,0.24-0.19,0.46
		c-2.87,0.1-5.74,0.2-8.61,0.29c0,0-0.08-0.07-0.08-0.07c1.82-9.46,2.11-19.26,0.63-28.48c-0.99-6.18,0.9-7.15,5.34-8.47
		c1.9-0.57,3.3-1.05,4.9,0.62c1.33,1.39,3.11,1.24,4.41-0.2c2.37-2.64,5.25-2.43,8.27-1.81l0.15-0.32c0,0-0.12,0.33-0.12,0.33
		c0.4,0.24,0.8,0.47,1.2,0.71c0,0-0.01-0.01-0.01-0.01c0.02,0.63,0.29,1.01,0.97,1c0,0,0.01,0.01,0.01,0.01
		c0.56,9.13,0.5,18.26-0.06,27.4c-0.11,1.8-0.96,4.05,1.18,5.48c0.24,0.38,0.47,0.77,0.71,1.15
		C114.97,336.72,114.99,337.31,115.02,337.9z"/>
	<path class="st0" d="M172.38,335.03c0.16,0.68,0.32,1.37,0.49,2.05c-0.04,0.3-0.09,0.6-0.13,0.9c-0.21,0.31-0.42,0.62-0.62,0.93
		c-3.32,0.01-6.64,0.01-9.96,0.02l-0.28-0.16c0,0-0.32,0.04-0.32,0.04c3.37-10.57,3.36-21.19,0.48-31.86
		c0.08-0.62,0.16-1.24,0.23-1.86c6.95-2.43,14.23-1.98,21.39-2.09c2.36-0.04,4.49,1.97,5.16,4.69c0.67,2.75,1.16,5.51,1.14,8.38
		c-0.04,6.98,0.06,13.96,0.11,20.94c-0.19,0.17-0.23,0.37-0.12,0.59c-3.12,0.85-6.28,1.33-9.52,0.79c-0.16-0.45-0.32-0.9-0.48-1.36
		c0.52-8.02,0.49-16.04,0.02-24.05c0.01-0.62,0.01-1.24,0.02-1.86c0.56-1.29,0.59-2.47-0.65-3.41c-0.47-0.74-1.16-0.98-1.99-0.91
		c-1.84-1.12-3.15-0.45-4.17,1.23c0,0,0,0,0,0C170.6,316.95,171.97,326,172.38,335.03z"/>
	<path class="st0" d="M54.68,301.21c0.23,0.12,0.41,0.07,0.54-0.15c0.99,0.05,1.98,0.15,2.98,0.16c6.77,0.03,6.74,0.02,6.74,6.75
		c0.01,7.32-0.05,14.65,0.22,21.97c0.07,1.97-0.64,5.11,3.16,5.01c0.64,0.13,1.29,0.26,1.93,0.4c4.09,0.68,4.17-2.33,4.21-4.92
		c0.1-7.22-0.04-14.44-0.04-21.67c0-1.74-0.31-3.25-1.95-4.18c0.14-0.21,0.11-0.39-0.1-0.54c0-0.69,0-1.37,0.01-2.06
		c0.22-0.12,0.26-0.28,0.13-0.49c0.26-0.19,0.53-0.38,0.79-0.57c0.62-0.14,1.24-0.28,1.86-0.41c4.57,0.2,7.74,2.02,7.33,7.15
		c-0.71,8.96,0.32,17.89,0.56,26.83c0.09,3.53-1.2,3.98-3.7,4.06c-5.37,0.17-10.75,0.22-16.13,0.33c0,0-0.23-0.17-0.23-0.17
		s-0.28,0.08-0.28,0.08c-0.46-0.3-0.91-0.6-1.37-0.9c0,0,0.01,0.01,0.01,0.01c-3.45-3.04-4.35-7.07-4.35-11.41
		c0-3.53,0.49-7.09-0.89-10.5c0-1.61,0-3.21,0-4.82c0.58-1.93,1.27-3.88-0.69-5.48c-0.23-0.29-0.46-0.57-0.69-0.86
		C54.26,303.61,54.23,302.42,54.68,301.21z"/>
	<path class="st1" d="M136.15,163.05c2.39-7.37,4.79-14.71,6.75-22.24c1.95-7.51,0.06-13.89-2.67-20.14
		c-3.01-6.88-7.87-12.56-15.55-14.91c-0.61-2.59,0.57-2.24,2.38-1.67c5.08,1.61,7.85-0.44,7-5.56c-0.6-3.59,0.72-4.5,3.82-4.37
		c2.96,0.13,5.92,0.24,8.88,0.36c-2.29,1.97-5.04,1.1-7.58,1.07c-2.92-0.03-3.75,1.05-3.21,3.88c0.89,4.73,3.7,8.36,6.44,12.05
		c1.17,1.57,2.43,3.08,3.65,4.61c-3.52,0.04-4.14,2.1-3.41,5c1.7,6.73,3.73,13.31,1.74,20.48c-0.92,3.32,2.73,5.57,5.86,3.77
		c4.75-2.72,9.87-2.45,14.91-2.07c3.15,0.24,5.21,2.68,5.99,5.84c4.58,18.75,7.13,37.78,5.78,57.05c-0.61,8.76-3.99,16.94-9.84,23.9
		c-3.02,3.6-7.44,6.47-7.22,12.07c0.02,0.41-0.37,1.02-0.75,1.24c-6.98,4.23-5.08,11.44-5.97,17.7c-0.22,1.54,0.54,3.52-1.93,3.94
		c0.33-4.46,0.69-8.92,0.97-13.38c0.41-6.63,4.29-11.56,7.98-16.63c4.35-5.98,9.95-10.95,12.51-18.34
		c3.66-10.56,3.07-21.35,2.45-32.04c-0.57-9.72-2.63-19.36-3.99-29.04c-0.72-5.17-2.59-9.09-8.51-10.07
		c-5.79-0.96-10.93-0.07-15.05,4.17c-1.68,1.73-2.65,4.16-3.94,6.27c-1.11-1.28,0.35-3.28-1.29-4.55
		C139.41,154.91,140.86,160.66,136.15,163.05z"/>
	<path class="st1" d="M104.13,95.68c4.05-0.95,7.93-2.34,11.59-4.35c1.97-1.08,1.97-2.15,0.64-3.92
		C102.09,68.5,87.92,49.5,73.65,30.59c-1.71-2.27-3.02-6.21-7.19-3.11c0.06-0.81-0.2-1.99,0.24-2.38
		c9.67-8.48,20.14-13.82,33.59-9.51c3.38,1.08,7.47,0.16,8.7,4.86c-6.56-2.13-12.88-5.26-20.13-4.34
		c-5.18,0.66-10.01,2.13-14.64,5.31c8.02,11.02,16,22.06,24.05,33.03c6.63,9.03,13.48,17.9,19.98,27.03c3.6,5.05,3.8,5.29,8.57,1.29
		c0.65,1.88-0.47,2.93-1.95,3.42c-4.94,1.63-7.3,6.13-10.92,9.17C111.66,97.3,107.48,97.34,104.13,95.68z"/>
	<path class="st0" d="M228.19,358.65c1.51,0.19,3.02,0.39,4.53,0.58c0.32,2.95,0.73,5.86-3.85,5.5c-2.77-0.21-3.05,1.71-3.02,3.95
		c0.09,5.8,0.11,11.6,0.03,17.39c-0.04,3.15,0.1,5.68,4.27,3.32c1.07-0.61,2.33-0.55,3.17,0.48c0.86,1.05,0.35,2.16-0.21,3.23
		c-0.45,0.86-0.77,1.79-1.14,2.69c0,0-0.04,0.05-0.04,0.05c-4.22,2.64-8.44,3.62-12.64-0.02c0,0-0.02-0.03-0.02-0.03
		c-2.28-8.42-1.69-17-1.41-25.56c0.08-2.27,0.85-4.81-2.51-5.49c0,0-0.04-0.03-0.04-0.03c-2.55-3.42-2.96-6.24,2-7.8
		c1.07-0.34,2.01-1.13,2.99-1.73c2.09-1.27,4.25-2.98,4.62,1.44C225.09,358.61,226.51,358.94,228.19,358.65z"/>
	<path class="st0" d="M143.09,300.07c3.69-2.69,7.03-1.61,9.98,1.19c2.23,2.12,4.16,4.53,6.23,6.82c3.4,9.6,2.41,19.17-0.26,28.72
		c-0.99,0.66-1.97,1.32-2.96,1.97c-1.99,0.23-4.2,1.3-4.67-2.18c-1.03-7.65-2.57-15.21-5.18-22.49
		C144.61,309.53,145.95,304.33,143.09,300.07z"/>
	<path class="st0" d="M102.99,409.88c-6.48,2.22-9.01,1.51-13.75-3.9c0.43-0.5,0.85-1.43,1.27-1.43c4.87,0.04,4.84-3.13,4.8-6.71
		c-0.11-8.79,0.03-17.59,0.01-26.39c-0.01-2.31,0.06-4.64-0.84-6.87c-0.52-1.3-1.82-2.9-0.2-4.06c2.48-1.76,5.49-1.12,8.19-0.69
		c1.82,0.29,1.28,2.43,1.19,3.82c-0.89,13.6-0.01,27.21-0.05,40.81C103.6,406.27,103.21,408.08,102.99,409.88z"/>
	<path class="st0" d="M109.58,363.41c0.26-0.51,0.53-1.03,0.79-1.54c0.87-0.44,1.73-0.93,2.63-1.31c2.54-1.07,5.44-3.44,7.79-1.48
		c2.01,1.67,0.55,4.99,0.32,7.58c-0.03,0.33-0.17,0.64-0.22,0.97c-1.16,7.93-1.88,15.97-3.73,23.74c-0.59,2.46,0.76,6.16-2.78,7.71
		c0,0-0.39-0.22-0.38-0.22c-0.63-1.77-2.45-1.89-3.76-2.73c-1.32-1.44-2.64-2.88-3.97-4.32c-0.18-1.79-0.48-3.58-0.51-5.37
		C105.63,378.53,104.85,370.51,109.58,363.41z"/>
	<path class="st0" d="M135.69,303.18c1.2-2.28,3.27-2.36,5.45-2.15c2.17,10.57,4.53,21.11,6.44,31.73c1.4,7.77,0.49,8.41-7.33,6.73
		c-0.1-0.34-0.33-0.54-0.67-0.6c-7.81-9.39-11.46-19.67-6.79-31.73c0.29-0.11,0.48-0.32,0.54-0.63c0.86-0.07,0.85-0.61,0.66-1.24
		c0.26-0.18,0.38-0.43,0.36-0.75c0,0,0.35,0.02,0.35,0.02l-0.05-0.34c0.24-0.23,0.47-0.45,0.71-0.67c0,0,0.34,0.01,0.34,0.01
		L135.69,303.18z"/>
	<path class="st0" d="M132.18,392.11c-0.39,0.36-0.79,0.73-1.18,1.09c-1.77,1.55-3.53,3.1-5.3,4.66c-0.31-0.05-0.53,0.06-0.66,0.35
		c-1.34-0.18-2.57,0.14-3.67,0.92c-0.54-0.04-1.08-0.09-1.62-0.13c2.03-13.25,4.13-26.48,5.27-39.84c0.24,0,0.41-0.11,0.49-0.33
		c5.71,0.92,8.02,5.14,8.79,10.07C135.51,376.74,135.25,384.59,132.18,392.11z"/>
	<path class="st1" d="M68.87,135.21c-0.08-4.19,1.32-8.16,1.88-12.25c0.38-2.79,0.75-5.62,0.66-8.42c-0.2-5.85-4.1-11.31-8.85-12.7
		c-5.98-1.76-10.65,0.44-14.65,4.86c-4.73,5.23-5.62,12.05-7.18,18.38c-4.42,17.97-5.27,36.16-0.5,54.24
		c1.82,6.88,4.66,13.45,8.04,19.75c-4.35-0.06-3.78-4.2-4.8-6.48c-6.45-14.43-9.21-29.62-8.14-45.45
		c0.55-8.12,2.53-15.96,4.24-23.88c1.2-5.57,1.68-11.43,4.96-16.08c2.23-3.16,5.35-6.52,9.62-6.93
		c10.13-0.96,16.02,0.34,18.61,12.14C74.54,120.47,71.83,127.89,68.87,135.21z"/>
	<path class="st1" d="M63.23,338.86c5.38-0.1,10.75-0.15,16.13-0.33c2.51-0.08,3.8-0.53,3.7-4.06c-0.24-8.93-1.27-17.86-0.56-26.83
		c0.41-5.12-2.77-6.94-7.33-7.15c2.82-3.12,5.71-0.75,8.53-0.03c1.07,0.27,2.68,1.61,2.97,1.34c5.86-5.56,13.51-0.04,19.73-3.29
		c1.78-0.93,3.99-1.13,4.52,1.85c-3.02-0.61-5.9-0.83-8.27,1.81c-1.29,1.44-3.08,1.59-4.41,0.2c-1.6-1.67-3-1.19-4.9-0.62
		c-4.44,1.32-6.33,2.28-5.34,8.47c1.48,9.23,1.19,19.02-0.63,28.48c-6.33,2.43-12.89,2.75-19.56,2.23
		C65.95,340.81,64.06,341.08,63.23,338.86z"/>
	<path class="st0" d="M124.13,338.96c-1.49-0.07-2.98-0.14-4.47-0.21c-0.41-2.02,1.7-3.71,0.77-5.8c0.53-0.97,0.43-1.93-0.07-2.89
		c0.07-8.67,0.85-17.35-0.25-26c0,0,0.14-0.13,0.14-0.13c0.45-0.25,0.91-0.5,1.36-0.74c0.22,0.14,0.41,0.11,0.57-0.09
		c1.74,0.49,3.43,0.17,5.09-0.38c2.03,0.26,1.71,1.96,2,3.28c-1.29,10.74-0.99,21.42,1.19,32.03c0,0-0.15,0.23-0.15,0.23
		C128.27,338.65,126.07,337.66,124.13,338.96z"/>
	<path class="st1" d="M109.58,363.41c-4.73,7.1-3.95,15.12-3.8,23.02c0.03,1.79,0.33,3.58,0.51,5.37
		c-3.11,3.54-0.37,7.65-1.08,11.44c-0.44,2.34,0.58,5.1-2.22,6.63c0.21-1.8,0.61-3.61,0.61-5.41c0.04-13.6-0.83-27.21,0.05-40.81
		c0.09-1.39,0.64-3.53-1.19-3.82c-2.7-0.43-5.71-1.08-8.19,0.69c-1.62,1.16-0.32,2.76,0.2,4.06c0.9,2.23,0.83,4.56,0.84,6.87
		c0.02,8.8-0.12,17.59-0.01,26.39c0.05,3.58,0.08,6.74-4.8,6.71c-0.42,0-0.85,0.93-1.27,1.43c-1.27-1.22-1.34-2.5,0.52-2.83
		c2.14-0.39,4.09-0.64,3.39-3.48c-0.64-2.6-2.89-1.49-4.52-1.7c-0.81-0.11-1.64-0.02-2.46-0.02c4.52-0.95,5.24-3.94,4.7-8.01
		c-0.34-2.57,0.06-5.24,0.13-7.86c1.29-0.15,2.27-0.73,2.23-2.16c-0.13-4.96,0.7-9.99-0.48-14.87c-0.92-3.79-0.9-6.66,3.95-7.05
		c1.56-0.13,2.34-1.1,2.48-2.62c0.95-0.18,1.91-0.37,2.86-0.55C103.83,358.31,104.39,362.9,109.58,363.41z"/>
	<path class="st1" d="M171.28,391.12c-0.24,1.55-0.47,3.1-0.71,4.64c-5.1,3.06-10.87,2.19-16.34,2.45
		c-3.39,0.16-3.48-3.44-2.61-5.45c3.38-7.73,0.81-15.71,1.55-23.52c0.13-1.32-0.59-2.21-2.05-2.25c-1.18-0.03-2.37-0.1-2.88,1.33
		c-0.61,1.72-1.16,3.41-1.12,5.31c0.13,6.18-1.07,12.42,0.85,18.52c-1.76-1.02-2.56-2.81-2.61-4.58c-0.2-6.3-0.74-12.65,0.81-18.86
		c0.63-2.53,1.93-4.99,5-4.58c3.05,0.4,3.52,2.88,3.48,5.65c-0.1,6.65,0.16,13.31,0.02,19.97c-0.15,6.96-0.28,6.88,7.38,6.6
		c2.92-0.11,3.55-0.2,2.73-3.87c-1.82-8.1-0.71-16.55-0.57-24.85c0.04-2.32,2.39-3.01,4.37-3.39c2.07-0.4,3.47,1.17,3.45,2.75
		c-0.13,8.03,1.28,16.13-0.72,24.1c-0.05-6.16-0.06-12.31-0.18-18.47c-0.05-2.34,0.85-5.58-3.08-5.53c-3.55,0.05-2.8,3.07-2.85,5.27
		c-0.08,4.16,0.22,8.34-0.11,12.48C164.72,389.58,166.45,391.74,171.28,391.12z"/>
	<path class="st1" d="M125.02,359.16c-1.14,13.36-3.25,26.6-5.27,39.84c-1.8-0.72-3.54,2.16-5.35,0.07
		c3.54-1.55,2.19-5.25,2.78-7.71c1.85-7.77,2.57-15.81,3.73-23.74c0.05-0.33,0.19-0.64,0.22-0.97c0.23-2.59,1.69-5.91-0.32-7.58
		c-2.35-1.95-5.26,0.41-7.79,1.48c-0.9,0.38-1.76,0.87-2.63,1.31C115.37,356.74,118.27,356.2,125.02,359.16z"/>
	<path class="st1" d="M132.18,392.11c3.07-7.52,3.33-15.38,2.12-23.22c-0.76-4.93-3.08-9.15-8.79-10.07
		c0.47-0.88,1.63-1.19,2.05-0.77c4.07,4.02,8.69,0.81,13.03,1.14c-4.27,1.42-4.1,3.86-3.45,8.1c1.29,8.33,1.86,16.96-1.39,25.2
		c-0.9,2.29,0.34,3.29,2.49,3.77c3.32,0.73,6.56,0.17,9.82-0.34c-0.12,0.79,0.04,1.99-0.41,2.29c-3.01,2-5.98-0.62-9.02-0.27
		c-3.59,0.41-5.74-0.75-5.53-4.78C133.12,392.83,132.5,392.46,132.18,392.11z"/>
	<path class="st1" d="M30.45,392.16c-0.7,3.21,0.43,4.93,3.84,4.27c2.98-0.58,6.77,1.74,8.82-2.35c2.3,3.07,0.85,4.67-2.3,4.76
		c-8.51,0.24-17.02-0.47-25.55-0.01c-3.41,0.18-4.89-1.81-4.07-5.48c2.1-9.44,1.76-19.02,1.24-28.59c2.09,0.67,1.75,2.51,1.99,4.09
		c1.19,7.95,0.42,15.83-1.42,23.55c-0.88,3.69,0.46,4.47,3.57,4.38c1.98-0.06,3.96-0.21,5.93-0.12c2.69,0.12,2.95-1.43,2.68-3.49
		C26.92,392.83,28.69,392.5,30.45,392.16z"/>
	<path class="st1" d="M185.62,382.83c1.58,13.1,1.58,12.98,14.73,13.16c3.95,0.05,7.88,0.73,11.82-0.08
		c1.26,1.65,0.18,2.05-1.19,2.02c-6.27-0.1-12.51,0-18.75,0.92c-3.57,0.53-6.33-3.09-10.05-2.56c0.72-0.75,1.27-1.61,0.9-2.66
		c-3.15-8.82-1.49-17.82-1.06-26.77c1.29,1.02,1.53,2.23,1.35,3.91c-0.32,2.94-0.19,5.93-0.25,8.9
		C183.08,381.42,183.08,383.13,185.62,382.83z"/>
	<path class="st1" d="M140.25,339.5c7.82,1.68,8.73,1.04,7.33-6.73c-1.91-10.62-4.27-21.16-6.44-31.73
		c0.41-0.82,1.12-1.02,1.95-0.97c2.86,4.26,1.51,9.46,3.15,14.02c2.61,7.28,4.15,14.84,5.18,22.49c0.47,3.48,2.68,2.41,4.67,2.18
		c-0.44,1.56-2.4,2.29-2.98,1.91C148.95,337.98,143.92,345.77,140.25,339.5z"/>
	<path class="st1" d="M138.19,71.16c-0.03,4.53-2.82,8.39-3.05,12.89c-0.31,5.89-0.05,6.19,5.79,5.95c1.79-0.08,3.59-0.09,5.39-0.13
		c-3.23,2.88-6.91,1.91-10.51,1.15c-1.94-0.41-2.32-2.16-2.51-3.82c-0.39-3.49,0.23-6.9,1.65-10.05c1.29-2.88,0.48-3.97-2.48-3.96
		c3.17-11.07,0.12-21.15-4.82-30.97c-1.17-2.34-3.04-4.34-3.46-7.04c4.72,1.4,4.82,6.29,6.8,9.59c4.33,7.19,4.61,15.41,4.17,23.63
		C135.05,70.43,134.8,72.86,138.19,71.16z"/>
	<path class="st1" d="M193.13,55.38c-8.11-1.98-16.31-2.21-24.55-1.14c-12.34,1.59-22.32,7.47-30.35,16.85
		c-0.4-2.68,1.32-4.69,2.96-6.01c9.13-7.39,18.91-13.4,31.35-12.89c6.26,0.26,12.65-0.95,18.68,1.8
		C191.98,54.33,192.77,54.53,193.13,55.38z"/>
	<path class="st1" d="M228.19,358.65c-1.68,0.29-3.1-0.05-3.26-2.01c-0.37-4.43-2.53-2.71-4.62-1.44c-0.99,0.6-1.92,1.4-2.99,1.73
		c-4.95,1.55-4.55,4.38-2,7.8c-2.46,0.52-2.25,2.43-2.25,4.25c0.01,6.75,0.04,13.5-0.02,20.25c-0.01,1.6,0.48,3.31-0.69,4.76
		c-2.4-5.94-0.73-12.1-0.9-18.16c-0.16-5.58,1.06-11.25-1.43-16.62c3.41-2.19,6.69-4.61,10.25-6.5
		C225.17,350.11,227.83,352.23,228.19,358.65z"/>
	<path class="st1" d="M87.33,266.02c21.21,0.02,42.43,2.18,63.61-0.45c-1.27,3.04-4.03,2.15-6.38,2.45
		c-16.66,2.16-33.32-0.04-49.98-0.02c-1.66,0-3.31,0-4.97-0.02C88.33,267.95,87.33,267.56,87.33,266.02z"/>
	<path class="st1" d="M130.47,338.03c-2.18-10.61-2.48-21.29-1.19-32.03c1.17,0.39,2.35,0.77,3.52,1.16
		c-4.67,12.07-1.03,22.35,6.78,31.74c-5.25-0.67-4.92-6.77-8.86-8.82C128.66,332.56,132.47,335.46,130.47,338.03z"/>
	<path class="st1" d="M96.54,335.02c0.53-7.76,0.48-15.52,0.23-23.29c-0.1-3.09,1.02-5.79,4.72-5.68c3.44,0.1,4.23,2.74,4.23,5.62
		c-0.01,7.79-0.06,15.58-0.19,23.37c-0.02,1.37,0.21,2.61,0.74,3.84c-3.2,0.5-2.9-1.72-2.98-3.74c-0.25-6.61,1.49-13.09,1.04-19.73
		c-0.19-2.72-0.35-5.35-3.67-5.2c-3.12,0.14-2.41,3.02-2.44,5.05c-0.07,4.96-0.03,9.92-0.03,14.88
		C98.2,331.95,98.37,333.82,96.54,335.02z"/>
	<path class="st1" d="M63.24,378.02c-2.03,5.49-2.46,10.93,0.48,16.26c-1.19,0.22-2.38,0.44-3.58,0.66
		c-1.51-2.71-1.63-5.78-1.42-8.65c0.6-8.06,0.05-16.1,0.08-24.15c2.18,2.39,4.31,3.32,6.32-0.18c-0.01,2.04-0.01,4.08-0.02,6.12
		c-4.02-0.51-3.63,2.97-4.4,5.14C59.92,375.45,60.57,377.39,63.24,378.02z"/>
	<path class="st1" d="M61.65,64.55c5.74,11.26,13.7,20.62,23.9,28.09c-2.36,0.6-4.15,1.86-6.06-1.84c-1.45-2.81-4.56-5.71-8.03-7.04
		c-2.05-0.78-3.55-1.92-3.89-3.94C66.63,74.31,61.05,70.63,61.65,64.55z"/>
	<path class="st1" d="M159.04,336.79c2.67-9.55,3.65-19.12,0.26-28.72c0.91-0.37,1.82-0.75,2.73-1.12
		c2.88,10.67,2.88,21.29-0.48,31.86C159.98,339.05,159.31,338.18,159.04,336.79z"/>
	<path class="st0" d="M102.05,354.81c-0.95,0.18-1.91,0.37-2.86,0.55c-0.98-0.04-1.96-0.09-2.93-0.13c-0.55-0.2-1.1-0.4-1.65-0.59
		l-0.33,0.28c0,0,0.31-0.3,0.31-0.3c-0.33-1.85-0.67-3.71-1-5.56c0.17-0.1,0.22-0.25,0.14-0.44c0.27-0.49,0.53-0.98,0.8-1.47
		c2.76-2.52,5.52-2.02,8.26,0.04c0.31,1.31,0.62,2.62,0.94,3.93c-0.09,0.62-0.18,1.23-0.26,1.85c-0.46,0.62-0.92,1.23-1.37,1.85
		L102.05,354.81z"/>
	<path class="st1" d="M231.99,395.8c0.38-0.9,0.7-1.83,1.14-2.69c0.56-1.07,1.07-2.18,0.21-3.23c-0.84-1.02-2.1-1.08-3.17-0.48
		c-4.18,2.36-4.32-0.16-4.27-3.32c0.08-5.8,0.06-11.6-0.03-17.39c-0.04-2.24,0.24-4.16,3.02-3.95c4.57,0.35,4.17-2.56,3.85-5.5
		c3.6,1.42,0.86,4.67,3.38,7.61c-6.37-1.99-7.66,0.12-8.5,5.01c-0.85,4.96,0.92,9.47,0.53,14.2c-0.12,1.44,1.02,2.19,2.32,1.64
		c2.82-1.18,4.22,0.14,4.5,2.65C235.2,392.64,235.98,395.64,231.99,395.8z"/>
	<path class="st1" d="M68.32,334.94c-3.8,0.1-3.09-3.04-3.16-5.01c-0.27-7.32-0.22-14.64-0.22-21.97c0-6.72,0.03-6.72-6.74-6.75
		c-0.99,0-1.98-0.1-2.98-0.16c3.25-2.31,7.1-0.36,10.6-1.46c1.59-0.5,1.05,1.56,1.39,2.55c1.91,5.59,0.22,11.25-0.3,16.7
		C66.36,324.48,66.77,329.68,68.32,334.94z"/>
	<path class="st1" d="M194.05,359.18c-0.98-0.07-1.97-0.19-2.95-0.22c-6.09-0.18-6.25,0.02-5.04,5.67c0.16,0.75-0.13,1.6-0.21,2.4
		c-1.08-1.09-1.39-3.77-3.9-1.89c-2.3-6.77-6.02-8.31-13.27-5.1c-2.6,1.15-4.68,1.46-6.59-0.94c5.29-0.94,10.68-2.98,15.85-2.53
		C183.26,357.04,188.89,357.08,194.05,359.18z"/>
	<path class="st0" d="M122.16,298.99c0,0-0.22-0.21-0.22-0.21s-0.3,0.03-0.3,0.03c-0.45-0.31-0.9-0.62-1.35-0.93
		c-0.28-0.34-0.56-0.67-0.85-1.01c-1.87-6.47-0.42-8.15,6.71-7.77c0,0-0.04-0.01-0.04-0.01c1.19,2.8,1.85,5.65,0.75,8.64l0.29,0.21
		c0,0-0.27-0.23-0.26-0.23c-0.33,0.33-0.66,0.67-0.99,1c0,0,0.06,0.3,0.06,0.3s-0.08-0.3-0.08-0.3
		C124.65,298.8,123.41,298.9,122.16,298.99z"/>
	<path class="st1" d="M215.36,364.75c3.37,0.67,2.59,3.22,2.51,5.49c-0.29,8.56-0.87,17.14,1.41,25.56
		c-4.91-0.72-3.75-5.05-3.9-7.77C214.94,380.29,215.31,372.52,215.36,364.75z"/>
	<path class="st1" d="M139.44,203.34c-5.13,6.2-12.31,5.39-18.79,4.38c-5.53-0.86-11.1-2.97-15.85-6.43
		c3.25,0.37,6.28,1.18,9.35,2.55C122.55,207.59,131.08,206.93,139.44,203.34z"/>
	<path class="st1" d="M46.24,364.86c3.11-0.68,3.16,1.36,3.15,3.51c-0.04,7.45,0.01,14.9-0.14,22.35c-0.05,2.44,0.04,4.63,2.31,6.1
		c-3.54,0.63-4.28-1.42-4.27-4.35c0.02-7.1-0.1-14.2,0.01-21.29C47.34,368.96,46.66,366.95,46.24,364.86z"/>
	<path class="st0" d="M156.26,290.85c-0.95,2.65-3.47,2.79-5.23,3.67c-1.7,0.85-3.39,4.08-5.23,2.08c-1.25-1.36,0.69-3.84,1.87-5.76
		c2.61-4.26,4.69-4.98,7.41-1.88C155.59,289.54,155.91,290.29,156.26,290.85z"/>
	<path class="st1" d="M143.61,158.98c1.14,9.7,2.57,19.38,2.25,29.19c-3.44-3.11-1.22-7.42-2.21-11.11
		c-1.3-4.85-0.02-10.18-1.35-15.21C142.02,160.76,142.22,159.5,143.61,158.98z"/>
	<path class="st1" d="M103.98,142.99c3.37-11.17,8.02-21.83,12.93-32.39c-0.7,7.84-5.17,14.33-7.78,21.48
		C107.76,135.83,107.12,140.03,103.98,142.99z"/>
	<path class="st1" d="M114.24,334.99c-2.14-1.43-1.29-3.68-1.18-5.48c0.56-9.14,0.61-18.26,0.06-27.4c2.63,0.88,1.94,3.14,2.05,5.03
		C115.68,316.45,114.5,325.7,114.24,334.99z"/>
	<path class="st1" d="M172.19,123.32c9.72-1.37,19.21-3.56,27.99-8.16c0.06,4.39-4.12,3.46-6.2,4.22
		C187.03,121.94,180.12,125.84,172.19,123.32z"/>
	<path class="st1" d="M43.12,394.02c-1.46-1.34-1.91-3.18-1.81-4.96c0.41-7.38-0.92-14.82,0.72-22.16
		C43.85,375.88,43.37,384.96,43.12,394.02z"/>
	<path class="st1" d="M114.31,101.25c-8.05,0.45-15.74,2.3-22.95,5.98c0-4.35,3.94-4.05,6.38-4.91
		C103.07,100.45,108.61,98.75,114.31,101.25z"/>
	<path class="st1" d="M201.42,362.48c2.1,3.52,0.66,7.36,0.88,11.03c0.28,4.59,0.09,9.2,0.11,13.81c0.01,1.95-0.52,3.8-2.52,4.33
		c-1.76,0.47-3.98,1.13-4.82-1.64c3.61,0.46,4.77-0.72,5.39-4.74C201.65,377.65,200.49,370.04,201.42,362.48z"/>
	<path class="st1" d="M56.13,315.97c1.37,3.41,0.89,6.97,0.89,10.5c0,4.33,0.9,8.37,4.35,11.41c-4.51,2.11-5.54-1.98-5.7-4.27
		C55.26,327.77,54.36,321.8,56.13,315.97z"/>
	<path class="st1" d="M72.47,304.58c1.64,0.93,1.95,2.44,1.95,4.18c0,7.22,0.14,14.45,0.04,21.67c-0.04,2.59-0.11,5.59-4.21,4.92
		c3.6-4.31,2.28-9.68,2.86-14.55C73.75,315.44,73.48,309.95,72.47,304.58z"/>
	<path class="st1" d="M48.51,359.33c-3.02,2.2-5.91,2.81-9.57,0.83c-3.25-1.76-7.13-0.86-10.7-0.3c-2.16,0.33-4.24,1.1-5.98-0.91
		c6.17-1.75,12.53-1.42,18.6-0.25C43.48,359.2,46,358.85,48.51,359.33z"/>
	<path class="st1" d="M70.2,158.22c-2.75-6.51-3.45-13.19-1.62-20.08C69.12,144.84,69.66,151.53,70.2,158.22z"/>
	<path class="st1" d="M85.65,92.7c4.4,1.72,8.9,3,13.69,2.89c-2.73,3.13-5.58,3.43-8.52,1.15C89.09,95.4,86.47,95.21,85.65,92.7z"/>
	<path class="st1" d="M59.44,46.18c-1.13,5.85,0.94,11.37,1.79,17.01C56.47,57.39,55.71,50.22,59.44,46.18z"/>
	<path class="st1" d="M207.95,66.54c-4.18-3.59-7.82-7.86-12.92-10.3C200.39,56.2,206.41,61,207.95,66.54z"/>
	<path class="st1" d="M75.5,130.17c-1.98,8.55-2.79,17.19-2.18,25.96c-2.44-8.46-1.36-16.87,0.47-25.25
		C73.87,130.53,74.91,130.4,75.5,130.17z"/>
	<path class="st1" d="M121.2,31.16c-2.71-2.63-5.41-5.25-8.12-7.88C119.81,23.19,119.81,23.19,121.2,31.16z"/>
	<path class="st1" d="M90.78,381.48c-1.45-3.62-0.63-7.46-1.03-11.18c-0.41-3.79-1.51-7.37-2.96-10.87c3.45,0.5,2.84,3.62,3.39,5.71
		C91.59,370.5,91.95,375.99,90.78,381.48z"/>
	<path class="st1" d="M219.3,395.83c4.21,3.64,8.42,2.67,12.64,0.02c-0.28,4.79-4.06,3.72-6.9,4.02
		C222.08,400.18,219.23,399.99,219.3,395.83z"/>
	<path class="st1" d="M152.21,120.03c3.65,1.08,7.55,1.31,10.98,3.14C156.88,125.22,153.92,124.37,152.21,120.03z"/>
	<path class="st1" d="M86.03,248.99c1.52,5.57,0.88,11.3,1.23,16.96c-0.55-0.28-1.55-0.52-1.58-0.84
		c-0.41-4.89-0.72-9.78-0.93-14.68C84.73,249.96,85.58,249.46,86.03,248.99z"/>
	<path class="st1" d="M145.78,191.95c-0.49,4.71-0.83,9.51-6.36,11.41C141.55,199.55,143.66,195.75,145.78,191.95z"/>
	<path class="st1" d="M172.38,335.03c-0.41-9.03-1.78-18.08,0.78-27.02C172.71,317.01,174.11,326.07,172.38,335.03z"/>
	<path class="st1" d="M212.51,100.21c0.87-5.01,1.75-10.02,2.62-15.02C217.16,90.7,215.96,95.65,212.51,100.21z"/>
	<path class="st1" d="M126.16,289.1c-7.13-0.38-8.58,1.3-6.71,7.77c-4.22-2.4-2.51-6.11-0.82-8.45
		C120.7,285.55,123.79,286.88,126.16,289.1z"/>
	<path class="st1" d="M120.11,304.07c1.1,8.66,0.32,17.33,0.25,26c-1.79-1.36-1.23-3.35-1.13-5.06
		C119.65,318.03,118.14,310.97,120.11,304.07z"/>
	<path class="st1" d="M117.13,110.09c0.66-2.33,1.32-4.65,1.99-6.98c0.34,0.5,0.96,1.01,0.96,1.51c-0.01,4.79,2.02,3.55,4.35,1.54
		c0.18,2.35-0.78,4.28-2.22,6.03C120.67,111.13,119.29,109.68,117.13,110.09z"/>
	<path class="st1" d="M179.96,312.97c0.48,8.02,0.5,16.04-0.02,24.05C178.54,329.01,178.61,320.99,179.96,312.97z"/>
	<path class="st1" d="M104.24,201.02c-3.31-1.07-5.8-3.16-7.67-6.06C100.74,194.94,102.89,197.48,104.24,201.02z"/>
	<path class="st1" d="M194.74,370.1c-0.26-3.66-0.52-7.32-0.78-10.98C197.6,362.54,196.72,366.28,194.74,370.1z"/>
	<path class="st1" d="M213.15,79.05c0.48-2.93-1.74-5.17-2.03-7.91C215.76,73.33,216.47,76.07,213.15,79.05z"/>
	<path class="st1" d="M162.13,91.89c-4.45,1.98-9.33,1.3-13.95,2.24C152.52,91.46,157.28,91.41,162.13,91.89z"/>
	<path class="st1" d="M194.16,87c-3.26,1.25-6.61,1.87-10.11,1.3C187.3,86.99,190.49,85.12,194.16,87z"/>
	<path class="st1" d="M126.88,297.74c1.1-3,0.44-5.85-0.75-8.64c2.06-0.33,3.19,0.58,3.06,2.63
		C129.04,293.93,130.44,296.82,126.88,297.74z"/>
	<path class="st1" d="M206.67,108.9c1.81-2.28,3.62-4.57,5.44-6.85C213.01,106.49,211.38,108.91,206.67,108.9z"/>
	<path class="st1" d="M181.18,88.76c-4.05,0.56-8.09,1.12-12.14,1.68C172.82,87.94,176.86,87.33,181.18,88.76z"/>
	<path class="st1" d="M122.16,298.99c1.24-0.1,2.49-0.19,3.73-0.29c0.46,1.34,0.92,2.68,1.38,4.02c-1.67,0.55-3.35,0.86-5.09,0.38
		C122.17,301.73,122.17,300.36,122.16,298.99z"/>
	<path class="st1" d="M106.31,338.89c2.61-0.01,5.23-0.03,7.84-0.04c0.12,3.08-0.19,5.45-3.59,1.95
		C109.37,339.56,107.18,340.73,106.31,338.89z"/>
	<path class="st1" d="M80.54,119.31c-0.38,3.13-2.33,5.48-3.93,8C75.87,123.64,76.14,120.46,80.54,119.31z"/>
	<path class="st1" d="M162.16,338.93c3.32-0.01,6.64-0.01,9.96-0.02C168.8,340.83,165.48,342.89,162.16,338.93z"/>
	<path class="st1" d="M120.42,332.96c0.93,2.09-1.18,3.78-0.77,5.8c-1.54-0.29-3.09-0.57-4.63-0.86c-0.02-0.59-0.05-1.17-0.07-1.76
		C117.7,336.68,118.8,334.37,120.42,332.96z"/>
	<path class="st1" d="M183.46,126.16c2.83-0.92,4.32-1.8,6.08-1.27c0.17,0.05,0.34,1.04,0.15,1.23
		C188.21,127.62,186.52,127.06,183.46,126.16z"/>
	<path class="st1" d="M87.48,110.23c-1.7,1.99-3.41,3.97-5.11,5.96C82.02,112.45,83.17,109.99,87.48,110.23z"/>
	<path class="st1" d="M180.42,338.38c3.24,0.54,6.4,0.07,9.52-0.79C188.19,340.65,183.84,341.01,180.42,338.38z"/>
	<path class="st1" d="M125.7,397.86c1.77-1.55,3.54-3.11,5.3-4.66C131.6,397.46,128.94,397.99,125.7,397.86z"/>
	<path class="st1" d="M209.16,85.03c-2.92,1.3-6.03,1.36-9.14,1.37C202.85,84.54,205.9,84.12,209.16,85.03z"/>
	<path class="st1" d="M208.21,358.77c-2.29,0.15-4.58,0.29-6.86,0.44C203.43,355.79,205.74,356.01,208.21,358.77z"/>
	<path class="st1" d="M121.32,115.09c0.28,2.9-1.25,5.05-2.92,7.15C118.31,119.42,117.42,116.27,121.32,115.09z"/>
	<path class="st1" d="M55.43,305.67c1.97,1.61,1.28,3.55,0.69,5.48C48.73,310.23,56.68,307.36,55.43,305.67z"/>
	<path class="st1" d="M118.42,122.24c-0.38,2.69-0.94,5.31-2.79,7.45C115,126.63,115.1,123.83,118.42,122.24z"/>
	<path class="st1" d="M124.13,338.96c1.94-1.3,4.14-0.31,6.19-0.7C128.57,341.28,126.34,340.09,124.13,338.96z"/>
	<path class="st1" d="M204.07,81.1c2.76-1.74,5.88-1.84,8.99-2C210.58,82.09,207.2,81.04,204.07,81.1z"/>
	<path class="st1" d="M63.97,394.55c1.3,0.98,2.59,1.97,3.89,2.95c-1.55,0.35-3.11,0.71-4.72,1.07
		C62.18,396.88,63.55,395.81,63.97,394.55z"/>
	<path class="st1" d="M52.23,396.91c2.58-0.62,5.39,0.18,7.83-1.27C58.26,401.07,55.03,397.65,52.23,396.91z"/>
	<path class="st1" d="M171.37,396.45c2.97,0.12,5.95-0.67,8.9,0.18C177.27,398.46,174.29,398.89,171.37,396.45z"/>
	<path class="st1" d="M18.33,358.89c-1.96,0.81-3.92,1.62-5.88,2.43C13.31,357.83,15.44,357.45,18.33,358.89z"/>
	<path class="st1" d="M129.22,80.12c0.92-1.8,1.85-3.6,2.77-5.39C131.92,76.97,133.53,80.07,129.22,80.12z"/>
	<path class="st1" d="M152.84,88.95c2.61-1.4,5.41-1.94,8.36-1.77C158.82,89.7,155.81,89.23,152.84,88.95z"/>
	<path class="st1" d="M99.1,156.22c-0.37-2.13,0.46-3.83,1.88-5.32C101.4,153.04,101.54,155.08,99.1,156.22z"/>
	<path class="st1" d="M113.3,135.18c-0.25,2.36-1.77,4.07-3.03,5.91C110.18,138.56,109.88,135.92,113.3,135.18z"/>
	<path class="st1" d="M161.25,87.17c2.68-0.47,5.36-0.93,8.04-1.4C167,88.52,163.97,86.93,161.25,87.17z"/>
	<path class="st1" d="M87.44,338.79c2.87-0.1,5.74-0.19,8.61-0.29C93.26,340.97,90.37,340.56,87.44,338.79z"/>
	<path class="st1" d="M113.09,23.3c-1.72-0.46-3.16-1.31-4.13-2.86C111.34,19.94,113.02,20.46,113.09,23.3z"/>
	<path class="st1" d="M93.57,349.05c0.33,1.85,0.67,3.71,1,5.56C90.77,353.39,91.86,351.28,93.57,349.05z"/>
	<path class="st1" d="M124.15,35.16c-1.75-0.77-2.5-2.28-2.96-4C123.74,31.34,124.38,32.92,124.15,35.16z"/>
	<path class="st1" d="M54.68,301.21c-0.45,1.21-0.42,2.4,0.06,3.59c-1.34,0.16-2.26-0.24-2.29-1.76
		C52.42,301.52,53.33,301.09,54.68,301.21z"/>
	<path class="st1" d="M78.73,233.71c1.65,0.35,1.94,1.64,2.08,3.03C78.6,236.77,76.58,236.67,78.73,233.71z"/>
	<path class="st1" d="M110.26,396.12c1.3,0.84,3.13,0.97,3.76,2.73C112.5,398.29,109.76,399.44,110.26,396.12z"/>
	<path class="st1" d="M200.21,115.14c0.73-1.9,2.17-3.11,3.95-3.96C203.82,113.48,202.52,114.81,200.21,115.14z"/>
	<path class="st1" d="M115.47,130.13c-0.09,1.95-0.43,3.78-2.17,5.01C113.17,133.1,112.84,130.98,115.47,130.13z"/>
	<path class="st1" d="M215.07,85.07c-1.36-0.18-2.71-0.36-4.07-0.54C212.74,81.86,213.94,83.15,215.07,85.07z"/>
	<path class="st1" d="M103.72,351.11c-0.31-1.31-0.62-2.62-0.94-3.93C105.15,348,106.41,349.08,103.72,351.11z"/>
	<path class="st1" d="M52.26,358.11c-1.09,0.87-2.38,1.12-3.72,1.22C49.19,357.11,50.3,356.29,52.26,358.11z"/>
	<path class="st1" d="M121.37,399.13c1.11-0.78,2.33-1.09,3.67-0.92C124.4,400.86,122.91,400.11,121.37,399.13z"/>
	<path class="st1" d="M83.61,242.51c1.21,1.24,1.69,2.78,1.77,4.46C82.34,246.46,83.37,244.33,83.61,242.51z"/>
	<path class="st1" d="M134.09,166.99c0.21-1.57,0.72-2.98,2.07-3.96C136.07,164.66,136.89,166.77,134.09,166.99z"/>
	<path class="st1" d="M173.17,308.01c1.02-1.67,2.33-2.34,4.17-1.23C176.31,308.43,174.66,307.97,173.17,308.01z"/>
	<path class="st1" d="M58.7,361.62c-0.8-1.6-2.19-2.57-3.69-3.41C57.64,357.83,59.49,358.3,58.7,361.62z"/>
	<path class="st1" d="M84.06,357.24c-0.97-0.27-1.94-0.54-2.91-0.81C82.79,354.29,83.5,355.52,84.06,357.24z"/>
	<path class="st1" d="M100.98,150.89c0.57-1.15,1.14-2.3,1.71-3.45C103.49,149.27,103.04,150.48,100.98,150.89z"/>
	<path class="st1" d="M179.33,307.7c1.25,0.94,1.21,2.13,0.65,3.41C177.33,310.44,178.86,308.97,179.33,307.7z"/>
	<path class="st1" d="M174.12,85.36c1.62-0.65,3.31-0.77,5.03-0.58C177.69,86.86,175.94,86.44,174.12,85.36z"/>
	<path class="st1" d="M107.63,150.18c-0.12,1.73-0.84,3.21-1.92,4.53C105.06,152.65,105.54,151.07,107.63,150.18z"/>
	<path class="st1" d="M81.9,238.32c1.24,0.92,1.68,2.18,1.56,3.67C81.68,241.31,81.02,240.14,81.9,238.32z"/>
	<path class="st1" d="M148.27,118.06c0.93-0.16,1.52,0.3,1.95,1.06C148.68,120.42,148.32,119.53,148.27,118.06z"/>
	<path class="st1" d="M42.06,366.68c-0.02-1.62,1.04-1.79,2.29-1.7C44.17,366.34,43.55,367.1,42.06,366.68z"/>
	<path class="st1" d="M148.17,89.53c1.31-0.61,2.68-0.6,4.07-0.4C151.01,90.6,149.64,90.53,148.17,89.53z"/>
	<path class="st1" d="M148.1,395.87c-0.05-1.25-0.1-2.5-0.15-3.76C149.76,393.3,149.66,394.55,148.1,395.87z"/>
	<path class="st1" d="M109.63,144.18c0.26,1.34,0.1,2.55-1.06,3.46C108.2,146.26,107.86,144.9,109.63,144.18z"/>
	<path class="st1" d="M179.59,84.75c1.03-0.99,2.27-1.08,3.58-0.82C182.25,85.41,180.95,85.21,179.59,84.75z"/>
	<path class="st1" d="M201.39,359.17c-0.07,0.95-0.15,1.9-0.22,2.84C199.91,360.96,199.52,359.98,201.39,359.17z"/>
	<path class="st1" d="M204.23,111.13c0.37-0.95,0.95-1.68,2.02-1.88C206.18,110.52,205.55,111.2,204.23,111.13z"/>
	<path class="st1" d="M102.08,354.81c0.46-0.62,0.92-1.23,1.37-1.85C104.57,354.75,103.54,354.94,102.08,354.81z"/>
	<path class="st1" d="M60.37,37.09c0.31,1.06,0.38,2.11-0.23,3.1C58.97,39.06,59.01,38.03,60.37,37.09z"/>
	<path class="st1" d="M166.21,91.01c-0.56,0.65-1.19,1.04-2.05,0.53C164.74,90.98,165.18,89.88,166.21,91.01z"/>
	<path class="st1" d="M53.35,204.96c1.04,0.34,1.69,1,1.72,2.15C53.74,207,53.18,206.28,53.35,204.96z"/>
	<path class="st1" d="M132.62,169.41c0.13-1.03,0.42-1.96,1.48-2.42C134.07,168.08,134.81,169.64,132.62,169.41z"/>
	<path class="st1" d="M97.05,162.11c0.01-1.16,0.17-2.26,1.17-3.04C98.43,160.32,98.49,161.5,97.05,162.11z"/>
	<path class="st1" d="M105.58,155.11c0.22,1.33,0.03,2.54-1.04,3.48C104.22,157.24,103.87,155.87,105.58,155.11z"/>
	<path class="st1" d="M211.11,71.13c-0.86-0.3-1.22-0.94-1.26-1.81C210.97,69.44,211.22,70.16,211.11,71.13z"/>
	<path class="st1" d="M76.6,127.35c0.18,0.97-0.12,1.75-0.93,2.33C75.31,128.64,75.23,127.7,76.6,127.35z"/>
	<path class="st1" d="M81.54,117.32c0.13,0.9-0.12,1.61-1.01,2C80.25,118.34,80.34,117.55,81.54,117.32z"/>
	<path class="st1" d="M60.14,42.09c0.6,0.94,0.5,1.83-0.19,2.68C59.3,43.82,59.26,42.92,60.14,42.09z"/>
	<path class="st1" d="M194.74,81.86c0.73-0.65,1.54-0.81,2.44-0.39C196.47,82.26,195.64,82.25,194.74,81.86z"/>
	<path class="st1" d="M86.79,359.42c-0.52-0.47-1.04-0.94-1.56-1.41C86.18,358,86.96,358.18,86.79,359.42z"/>
	<path class="st1" d="M91.35,107.23c-0.27,0.97-0.98,1.31-1.91,1.32C89.58,107.4,90.32,107.11,91.35,107.23z"/>
	<path class="st1" d="M61.61,34.4c-0.05,0.9-0.36,1.65-1.14,2.17C60.22,35.51,60.34,34.65,61.61,34.4z"/>
	<path class="st1" d="M94.59,354.64c0.55,0.2,1.1,0.4,1.65,0.59C95.34,356.01,94.69,356.1,94.59,354.64z"/>
	<path class="st1" d="M50.23,201.15c0.92,0.19,1.22,0.92,1.47,1.69C50.57,202.83,50.24,202.12,50.23,201.15z"/>
	<path class="st1" d="M129.06,173c0.17-0.83,0.73-1.25,1.51-1.44C130.93,172.95,130.03,173.02,129.06,173z"/>
	<path class="st1" d="M72.38,301.98c0,0.69-0.01,1.37-0.01,2.06C71.29,303.35,71.29,302.67,72.38,301.98z"/>
	<path class="st1" d="M143.22,358.83c-0.68,0.07-1.36,0.14-2.04,0.22C141.76,358.03,142.43,357.88,143.22,358.83z"/>
	<path class="st1" d="M133.99,305.29c0.19,0.63,0.2,1.17-0.66,1.24C133.06,305.86,133.18,305.39,133.99,305.29z"/>
	<path class="st1" d="M127.78,81.67c0.16-0.81,0.58-1.38,1.43-1.54C129.22,81.1,129,81.85,127.78,81.67z"/>
	<path class="st1" d="M172.74,337.98c0.04-0.3,0.09-0.6,0.13-0.9c0.07,0.23,0.16,0.45,0.18,0.68
		C173.05,337.83,172.85,337.91,172.74,337.98z"/>
	<path class="st1" d="M62.26,33.14c-0.22,0.43-0.44,0.86-0.66,1.28C61.41,33.78,61.7,33.39,62.26,33.14z"/>
	<path class="st1" d="M61.35,337.87c0.45,0.3,0.91,0.6,1.37,0.9C62.03,338.83,61.59,338.5,61.35,337.87z"/>
	<path class="st1" d="M76.44,230.62c0.71,0.1,1.21,0.42,1.3,1.19C76.98,231.78,76.55,231.38,76.44,230.62z"/>
	<path class="st1" d="M73.3,300.92c-0.26,0.19-0.53,0.38-0.79,0.57C72.41,300.8,72.42,300.25,73.3,300.92z"/>
	<path class="st1" d="M110.26,141.13c-0.13,0.53-0.26,1.05-0.39,1.58C109.47,142.05,109.64,141.54,110.26,141.13z"/>
	<path class="st1" d="M112.15,301.1c-0.4-0.24-0.8-0.47-1.2-0.71C111.61,300.18,111.98,300.46,112.15,301.1z"/>
	<path class="st1" d="M52.4,203.76c0.65,0.16,0.98,0.56,0.97,1.24C52.71,204.85,52.38,204.44,52.4,203.76z"/>
	<path class="st1" d="M146.18,116.21c0.63-0.04,0.92,0.26,0.91,0.88C146.79,116.8,146.49,116.51,146.18,116.21z"/>
	<path class="st1" d="M82.36,116.2c0.05,0.62-0.22,1-0.84,1.13C81.4,116.67,81.71,116.31,82.36,116.2z"/>
	<path class="st1" d="M94.52,347.14c-0.27,0.49-0.54,0.98-0.8,1.47C93.48,347.85,93.77,347.37,94.52,347.14z"/>
	<path class="st1" d="M126.78,174.9c0.45-0.34,0.91-0.67,1.36-1.01C127.98,174.62,127.51,174.94,126.78,174.9z"/>
	<path class="st1" d="M113.11,302.1c-0.68,0.01-0.95-0.37-0.97-1C112.76,301.14,113.09,301.46,113.11,302.1z"/>
	<path class="st1" d="M125.91,298.71c0.33-0.33,0.66-0.66,0.99-1C126.94,298.41,126.62,298.74,125.91,298.71z"/>
	<path class="st1" d="M147.2,117.2c0.56,0,0.96,0.2,1.01,0.82C147.87,117.75,147.54,117.48,147.2,117.2z"/>
	<path class="st1" d="M130.83,171.35c0.24-0.22,0.48-0.44,0.73-0.67C131.78,171.41,131.55,171.65,130.83,171.35z"/>
	<path class="st1" d="M117.26,101.71c-0.59,0.26-1.07,0.15-1.43-0.41C116.31,101.44,116.78,101.57,117.26,101.71z"/>
	<path class="st1" d="M121.61,303.19c-0.45,0.25-0.91,0.5-1.36,0.74C120.48,303.28,120.96,303.08,121.61,303.19z"/>
	<path class="st1" d="M131.81,170.43c0.21-0.24,0.41-0.48,0.61-0.72C132.79,170.43,132.56,170.65,131.81,170.43z"/>
	<polygon class="st1" points="135.69,303.18 135.7,303.55 135.36,303.54 135.37,303.22 	"/>
	<path class="st1" d="M195.09,390.04c-0.18-0.22-0.39-0.42-0.53-0.66c-0.04-0.07,0.14-0.26,0.21-0.39
		C194.88,389.34,194.99,389.69,195.09,390.04z"/>
	<path class="st1" d="M85.22,358c-0.4-0.27-0.8-0.54-1.2-0.8C84.42,357.47,84.82,357.74,85.22,358z"/>
	<path class="st1" d="M126.85,82.74c0.29-0.33,0.58-0.66,0.86-1C127.88,82.47,127.59,82.8,126.85,82.74z"/>
	<path class="st1" d="M95.28,166.1c-0.19-0.67,0.03-1.18,0.6-1.55C96.11,165.23,95.89,165.74,95.28,166.1z"/>
	<path class="st1" d="M209.9,69.38c-0.62-0.12-0.93-0.5-0.93-1.13C209.64,68.33,209.97,68.69,209.9,69.38z"/>
	<path class="st1" d="M209.01,68.28c-0.65-0.15-0.82-0.6-0.77-1.2C208.49,67.48,208.75,67.88,209.01,68.28z"/>
	<path class="st1" d="M96.08,164.08c-0.11-0.71,0.11-1.26,0.76-1.6C97.05,163.23,96.75,163.75,96.08,164.08z"/>
	<path class="st1" d="M195.06,56.27c-0.5-0.25-0.99-0.5-1.49-0.75C194.3,55.32,194.79,55.58,195.06,56.27z"/>
	<path class="st1" d="M98.22,159.07c0.08-0.35,0.16-0.69,0.24-1.04C99.1,158.54,98.94,158.87,98.22,159.07z"/>
	<path class="st1" d="M120.3,297.88c0.45,0.31,0.9,0.62,1.35,0.93C120.94,298.88,120.48,298.58,120.3,297.88z"/>
	<path class="st1" d="M108.4,148.08c-0.19,0.55-0.39,1.1-0.58,1.65C107.45,148.98,107.68,148.45,108.4,148.08z"/>
	<path class="st1" d="M96.24,338.04c0.06-0.36,0.12-0.71,0.17-1.07C97.05,337.44,96.95,337.79,96.24,338.04z"/>
	<polygon class="st1" points="134.65,304.22 134.7,304.56 134.35,304.55 134.36,304.25 	"/>
	<path class="st2" d="M30.45,392.16c-1.76,0.34-3.53,0.67-5.29,1.01c0,0-0.02-0.04-0.02-0.04c-0.03-0.63-0.36-0.99-1-1.03
		c0,0,0.01-0.01,0.01-0.01c-0.54-3.07,1.7-6.62-1.62-9.2c0.01-0.95,0.02-1.9,0.03-2.86c0.62-0.33,0.69-0.68,0.07-1.09
		c0.03-1.28,0.07-2.57,0.1-3.85c2.85-2.55,0.99-6.31,2.38-9.23c0,0,0.12-0.05,0.12-0.05c4.04,0.23,5.26,2.53,5.17,6.33
		c-0.15,6.65,0.03,13.3,0.07,19.96L30.45,392.16z"/>
	<path class="st1" d="M30.46,392.09c-0.04-6.65-0.21-13.31-0.07-19.96c0.09-3.8-1.14-6.11-5.17-6.33c2.84-2.76,5.79-1.75,6.27,1.4
		c1.23,8.06,0.67,16.25-0.25,24.36C31.22,391.77,30.73,391.92,30.46,392.09z"/>
	<path class="st1" d="M25.1,365.85c-1.4,2.92,0.46,6.69-2.38,9.23C22.87,371.84,20.8,368.02,25.1,365.85z"/>
	<path class="st1" d="M22.52,382.88c3.32,2.57,1.08,6.13,1.62,9.2C22.21,389.26,22.07,386.13,22.52,382.88z"/>
	<path class="st1" d="M24.14,392.09c0.64,0.05,0.96,0.4,1,1.03C24.48,393.1,24.11,392.79,24.14,392.09z"/>
	<path class="st1" d="M22.62,378.94c0.63,0.4,0.55,0.76-0.07,1.09C22.57,379.66,22.6,379.3,22.62,378.94z"/>
	<path class="st2" d="M181.94,365.14c2.51-1.87,2.83,0.8,3.9,1.89c-0.07,5.27-0.15,10.53-0.22,15.8c-2.55,0.3-2.54-1.41-2.5-3.16
		c0.06-2.97-0.07-5.96,0.25-8.9c0.18-1.68-0.06-2.89-1.35-3.91C181.99,366.29,181.97,365.71,181.94,365.14z"/>
	<path class="st1" d="M76.66,378.88c3.68,0.53,6.02,2.11,5.78,6.15c-0.26,4.26-2.67,6.88-6.42,6.63c-3.86-0.26-5.68-2.76-5.53-6.33
		C70.65,381.55,72.87,379.27,76.66,378.88z"/>
	<path class="st2" d="M63.24,378.02c-2.68-0.62-3.33-2.56-2.54-4.79c0.77-2.17,0.38-5.65,4.4-5.14c0.13,0.22,0.21,0.46,0.24,0.72
		c0.5,3.14,2.87,2.5,4.42,1.63c2.88-1.62,7.15-2.75,4.92-7.75c0,0,0.2-0.23,0.2-0.23c0.72,0.21,1.02-0.08,0.97-0.8
		c0,0,0.17-0.08,0.17-0.08c5.18,1.67,3.31,6.06,3.07,9.27c-0.29,3.87-3.37,0.49-5.12,1.09c-1.49,0.51-3.36-0.19-4.93,0.19
		c-3,0.73-6.28,1.48-5.75,5.82L63.24,378.02z"/>
	<path class="st1" d="M63.3,377.95c-0.53-4.34,2.76-5.09,5.75-5.82c1.57-0.38,3.44,0.31,4.93-0.19c1.76-0.6,4.83,2.78,5.12-1.09
		c0.24-3.22,2.11-7.6-3.07-9.27c3.32-1.42,5.04-0.27,5.21,3.28c0.04,0.83-0.01,1.66-0.01,2.48c0.02,6.79,0.01,6.91-6.71,6.33
		C70.01,373.28,66.62,375.4,63.3,377.95z"/>
	<path class="st1" d="M74.69,362.68c2.22,5.01-2.04,6.13-4.92,7.75c-1.55,0.87-3.92,1.51-4.42-1.63
		C70.72,370.21,72.34,365.88,74.69,362.68z"/>
	<path class="st1" d="M75.86,361.65c0.05,0.72-0.25,1.01-0.97,0.8C75.22,362.19,75.54,361.92,75.86,361.65z"/>
	<path class="st2" d="M171.28,391.12c-4.83,0.62-6.55-1.54-6.18-6.28c0.33-4.14,0.02-8.32,0.11-12.48c0.04-2.21-0.7-5.22,2.85-5.27
		c3.93-0.06,3.04,3.19,3.08,5.53c0.12,6.15,0.13,12.31,0.18,18.47C171.32,391.08,171.28,391.12,171.28,391.12z"/>
</g>
</svg>
